# xmcd CD database file
#
# Track frame offsets:
#	150
#	27232
#	60281
#	85888
#	124754
#	149233
#	172564
#	215988
#	250138
#
# Disc length: 3747 seconds
#
# Revision: 0
# Processed by: cddbd v1.5.2PL0 Copyright (c) Steve Scherf et al.
# Submitted via: CDex 1.51
#
DISCID=7c0ea109
DTITLE=BENNY Golson - The best of Benny Golson
DYEAR=1957
DGENRE=Jazz
TTITLE0=Whisper not
TTITLE1=Reunion
TTITLE2=Are you real
TTITLE3=Blues after dark
TTITLE4=I don't know what time it was
TTITLE5=April in Paris
TTITLE6=Along came Betty
TTITLE7=Five spot after dark
TTITLE8=Killer Joe
EXTD=YEAR: 1957
EXTT0=
EXTT1=
EXTT2=
EXTT3=
EXTT4=
EXTT5=
EXTT6=
EXTT7=
EXTT8=
PLAYORDER=
